<svg width="18" height="20" viewBox="0 0 18 20" fill="none" xmlns="http://www.w3.org/2000/svg">
<path d="M17.8224 17.9273V3.98384C17.8224 2.8853 16.9343 1.99192 15.8422 1.99192H13.8619V0H11.8816V1.99192H5.94081V0H3.96054V1.99192H1.98027C0.888151 1.99192 0 2.8853 0 3.98384V17.9273C0 19.0258 0.888151 19.9192 1.98027 19.9192H15.8422C16.9343 19.9192 17.8224 19.0258 17.8224 17.9273ZM5.94081 15.9354H3.96054V13.9434H5.94081V15.9354ZM5.94081 11.9515H3.96054V9.9596H5.94081V11.9515ZM9.90135 15.9354H7.92108V13.9434H9.90135V15.9354ZM9.90135 11.9515H7.92108V9.9596H9.90135V11.9515ZM13.8619 15.9354H11.8816V13.9434H13.8619V15.9354ZM13.8619 11.9515H11.8816V9.9596H13.8619V11.9515ZM15.8422 6.97172H1.98027V4.9798H15.8422V6.97172Z" fill="#4E5768"/>
</svg>
