<svg width="16" height="9" viewBox="0 0 16 9" fill="none" xmlns="http://www.w3.org/2000/svg">
<path d="M2.94524 1.30688L8.07463 5.99418L13.204 1.30688C13.3264 1.19504 13.4717 1.10632 13.6316 1.04579C13.7915 0.985257 13.9629 0.954101 14.136 0.954102C14.3091 0.954102 14.4805 0.985257 14.6404 1.04579C14.8004 1.10632 14.9457 1.19504 15.068 1.30688C15.1904 1.41873 15.2875 1.55151 15.3538 1.69764C15.42 1.84377 15.4541 2.0004 15.4541 2.15857C15.4541 2.31674 15.42 2.47337 15.3538 2.6195C15.2875 2.76563 15.1904 2.89841 15.068 3.01026L9.00003 8.55529C8.48445 9.02643 7.65158 9.02643 7.136 8.55529L1.06799 3.01026C0.945433 2.89849 0.848203 2.76574 0.781862 2.6196C0.715522 2.47345 0.681374 2.31679 0.681374 2.15857C0.681375 2.00035 0.715522 1.84369 0.781862 1.69754C0.848203 1.5514 0.945433 1.41864 1.06799 1.30688C1.58357 0.847816 2.42965 0.835736 2.94524 1.30688Z" fill="#4E5768"/>
</svg>
