<svg width="6" height="10" viewBox="0 0 10 20" fill="none" xmlns="http://www.w3.org/2000/svg">
<path d="M1.03442 15.8056L7.42916 9.41083L1.03442 3.01609C0.881832 2.8635 0.760794 2.68235 0.678215 2.48299C0.595635 2.28362 0.553131 2.06995 0.553131 1.85416C0.553131 1.63837 0.595635 1.42469 0.678215 1.22532C0.760794 1.02596 0.881832 0.844812 1.03442 0.692225C1.18701 0.539638 1.36815 0.418599 1.56752 0.33602C1.76688 0.25344 1.98056 0.210937 2.19635 0.210938C2.41214 0.210938 2.62582 0.25344 2.82518 0.33602C3.02455 0.418599 3.20569 0.539638 3.35828 0.692225L10.9232 8.25714C11.566 8.89991 11.566 9.93823 10.9232 10.581L3.35828 18.1459C3.20581 18.2987 3.0247 18.4199 2.82532 18.5026C2.62594 18.5853 2.4122 18.6279 2.19635 18.6279C1.9805 18.6279 1.76676 18.5853 1.56738 18.5026C1.368 18.4199 1.18689 18.2987 1.03442 18.1459C0.40813 17.5031 0.391649 16.4483 1.03442 15.8056Z" fill="#44444A"/>
</svg>
