<svg width="8" height="15" viewBox="0 0 8 15" fill="none" xmlns="http://www.w3.org/2000/svg">
<path d="M0.354797 12.2159L5.06888 7.3548L0.354797 2.49372C0.242312 2.37772 0.153086 2.24002 0.0922094 2.08847C0.0313333 1.93692 2.37043e-09 1.77449 0 1.61045C-2.37043e-09 1.44641 0.0313333 1.28398 0.0922094 1.13243C0.153085 0.980882 0.242312 0.84318 0.354797 0.727188C0.467281 0.611196 0.600819 0.519186 0.747787 0.456412C0.894755 0.393637 1.05227 0.361328 1.21135 0.361328C1.37043 0.361328 1.52795 0.393637 1.67491 0.456412C1.82188 0.519186 1.95542 0.611196 2.06791 0.727188L7.64462 6.4778C8.11846 6.96641 8.11846 7.75571 7.64462 8.24433L2.06791 13.9949C1.9555 14.1111 1.82199 14.2032 1.67501 14.2661C1.52803 14.329 1.37047 14.3613 1.21135 14.3613C1.05223 14.3613 0.894668 14.329 0.747689 14.2661C0.60071 14.2032 0.467198 14.1111 0.354797 13.9949C-0.106892 13.5063 -0.119042 12.7045 0.354797 12.2159Z" fill="#46CB90"/>
</svg>
