<svg width="15" height="26" viewBox="0 0 15 26" fill="none" xmlns="http://www.w3.org/2000/svg">
<path d="M1.12612 21.4942L9.53279 13.0875L1.12612 4.68087C0.925526 4.48028 0.766407 4.24214 0.657846 3.98005C0.549285 3.71796 0.493408 3.43706 0.493408 3.15337C0.493408 2.86969 0.549285 2.58879 0.657846 2.3267C0.766407 2.06461 0.925526 1.82647 1.12612 1.62587C1.32671 1.42528 1.56485 1.26616 1.82694 1.1576C2.08903 1.04904 2.36994 0.993164 2.65362 0.993164C2.9373 0.993164 3.21821 1.04904 3.4803 1.1576C3.74239 1.26616 3.98053 1.42528 4.18112 1.62587L14.1261 11.5709C14.9711 12.4159 14.9711 13.7809 14.1261 14.6259L4.18112 24.5709C3.98067 24.7717 3.74258 24.9311 3.48047 25.0398C3.21836 25.1485 2.93738 25.2045 2.65362 25.2045C2.36985 25.2045 2.08888 25.1485 1.82677 25.0398C1.56466 24.9311 1.32657 24.7717 1.12612 24.5709C0.302787 23.7259 0.28112 22.3392 1.12612 21.4942Z" fill="#2A3242"/>
</svg>
