<svg width="31" height="30" viewBox="0 0 31 30" fill="none" xmlns="http://www.w3.org/2000/svg">
<path d="M15.1882 28.9995C0.204306 28.9995 0.196238 14.4917 0.204306 14.2415C0.59968 6.30984 7.15159 0 15.1882 0C23.2086 0 29.7605 6.30178 30.164 14.2254C30.172 14.4836 30.164 28.9995 15.1882 28.9995Z" fill="#E0E0E0"/>
<path d="M15.1873 28.4827C7.15074 28.4827 0.598828 22.1729 0.203455 14.2412C0.187317 14.4913 0.187317 14.7415 0.187317 14.9997C0.187317 23.2783 6.9006 29.9997 15.1873 29.9997C23.474 29.9997 30.1873 23.2864 30.1873 14.9997C30.1873 14.7495 30.1792 14.4913 30.1712 14.2412C29.7677 22.1729 23.2158 28.4827 15.1873 28.4827Z" fill="#CECECE"/>
<path d="M15.1876 25.8691C3.37478 25.8691 3.38285 14.492 3.39899 14.2418C3.78629 8.06916 8.91808 3.1875 15.1876 3.1875C21.4571 3.1875 26.5808 8.06916 26.9762 14.2418C26.9923 14.492 26.9762 25.8691 15.1876 25.8691Z" fill="#9E9E9E"/>
<path d="M10.5733 10.3874C10.9187 8.90079 11.5644 7.72956 12.5104 6.87365C13.4564 6.01775 14.6952 5.5898 16.2268 5.5898C17.8335 5.5898 19.1474 6.05529 20.1685 6.98627C21.1895 7.90224 21.7001 9.14855 21.7001 10.7252C21.7001 11.7463 21.4673 12.6773 21.0018 13.5182C20.5363 14.344 19.8606 15.1774 18.9747 16.0183C18.8095 16.1835 18.3816 16.6039 17.6908 17.2796C17.0001 17.9553 16.5271 18.4283 16.2718 18.6986C16.0316 18.9539 15.7087 19.3443 15.3033 19.8699C14.9129 20.3804 14.5976 20.8834 14.3573 21.379H21.655V23.8115H10.7535C10.7535 23.1058 10.8661 22.4 11.0914 21.6943C11.3316 20.9735 11.6019 20.3504 11.9022 19.8248C12.2176 19.2993 12.6605 18.7061 13.2311 18.0454C13.8168 17.3697 14.2973 16.8442 14.6727 16.4688C15.0631 16.0934 15.6036 15.5753 16.2944 14.9146C16.4595 14.7645 16.5797 14.6519 16.6547 14.5768C17.9761 13.3154 18.6368 12.0091 18.6368 10.6576C18.6368 9.83177 18.4116 9.18609 17.9611 8.7206C17.5106 8.25511 16.9175 8.02236 16.1817 8.02236C14.6051 8.02236 13.5765 9.05846 13.096 11.1306L10.5733 10.3874Z" fill="#E0E0E0"/>
<path d="M15.1873 25.2955C8.91781 25.2955 3.78602 20.4139 3.39871 14.2412C3.38257 14.4913 3.3745 14.7415 3.3745 14.9997C3.3745 21.5274 8.66767 26.8125 15.1873 26.8125C21.7069 26.8125 27.0001 21.5193 27.0001 14.9997C27.0001 14.7495 26.992 14.4913 26.9759 14.2412C26.5805 20.4139 21.4568 25.2955 15.1873 25.2955Z" fill="#898989"/>
</svg>
