<svg width="31" height="30" viewBox="0 0 31 30" fill="none" xmlns="http://www.w3.org/2000/svg">
<g clip-path="url(#clip0)">
<path d="M15.6882 29.992C23.9703 29.992 30.6842 23.278 30.6842 14.996C30.6842 6.71393 23.9703 0 15.6882 0C7.40619 0 0.692261 6.71393 0.692261 14.996C0.692261 23.278 7.40619 29.992 15.6882 29.992Z" fill="#FFCC5B"/>
<path d="M17.7281 13.2778H8.21808C7.47913 13.2778 6.86868 12.6674 6.86868 11.9284L6.87672 11.832V11.8079C6.86868 11.0288 7.50322 10.3943 8.28234 10.3943H14.8687C15.7442 10.3943 16.5153 9.75172 16.5635 8.87622C16.6036 7.96056 15.8727 7.18948 14.957 7.18948H7.99318C7.2221 7.18948 6.64378 6.54691 6.65985 5.77582C6.65985 5.76779 6.65985 5.76779 6.65985 5.75172C6.65985 5.73566 6.65985 5.74369 6.65985 5.72763C6.65182 4.95654 7.2221 4.31397 7.99318 4.31397H15.2944C16.1538 4.31397 16.9249 3.6714 16.9811 2.80393C17.0213 1.88024 16.2904 1.11719 15.3747 1.11719H10.0253C4.57953 3.37422 0.73214 8.73968 0.73214 14.9967C0.73214 21.2537 4.5715 26.6192 10.0253 28.8682H16.8125C17.6719 28.8682 18.443 28.2256 18.4992 27.3581C18.5394 26.4345 17.8084 25.6714 16.8928 25.6714H9.16587C8.25824 25.6714 7.51929 24.9084 7.56748 23.9847C7.61567 23.1172 8.38676 22.4746 9.25423 22.4746H12.2502C13.1096 22.4505 13.8084 21.7437 13.8084 20.8762C13.8084 19.9927 13.0936 19.2698 12.202 19.2698H7.67993C6.94097 19.2698 6.33053 18.6674 6.3466 17.9204V17.8079C6.2984 17.077 6.88475 16.4586 7.60764 16.4586H17.6317C18.5072 16.4586 19.2783 15.816 19.3265 14.9485C19.3667 14.0409 18.6357 13.2778 17.7281 13.2778Z" fill="#FDBC4B"/>
<path d="M15.6888 25.7037C9.78519 25.7037 4.98198 20.9005 4.98198 14.9969C4.98198 9.09325 9.78519 4.29004 15.6888 4.29004C21.5924 4.29004 26.3956 9.09325 26.3956 14.9969C26.3956 20.9005 21.5924 25.7037 15.6888 25.7037Z" fill="#FFDB70"/>
<path d="M11.0668 12.1817V9.92936H11.8777C14.3252 9.92936 15.549 9.02841 15.549 7.22651V6.77604H18.1167V24.9527H15.076V12.1817H11.0668Z" fill="#ED6362"/>
</g>
<defs>
<clipPath id="clip0">
<rect width="30" height="30" fill="white" transform="translate(0.692261)"/>
</clipPath>
</defs>
</svg>
