<svg width="30" height="30" viewBox="0 0 30 30" fill="none" xmlns="http://www.w3.org/2000/svg">
<g clip-path="url(#clip0)">
<path d="M15.005 28.7409C0.0171039 28.7409 0.00903307 14.4956 0.0171041 14.2454C0.412584 6.31154 6.96626 0 15.005 0C23.0437 0 29.5893 6.31154 29.9848 14.2454C29.9929 14.4956 29.9848 28.7409 15.005 28.7409Z" fill="#FF9838"/>
<path d="M15.004 28.4905C6.9653 28.4905 0.411622 22.1789 0.0161421 14.2451C0 14.4953 0 14.7455 0 15.0038C0 23.2847 6.71509 30.0078 15.004 30.0078C23.293 30.0078 30.0081 23.2927 30.0081 15.0038C30.0081 14.7536 30 14.4953 29.9919 14.2451C29.5884 22.1789 23.0347 28.4905 15.004 28.4905Z" fill="#FF8709"/>
<path d="M26.8214 15.0045C26.8214 20.065 21.5268 26.094 15.0054 26.094C8.484 26.094 3.18134 19.726 3.18134 15.0045C3.18134 14.7543 3.18941 14.496 3.20555 14.2458C3.59296 8.07145 8.72613 3.18848 14.9973 3.18848C21.2685 3.18848 26.4017 8.07145 26.7972 14.2458C26.8133 14.496 26.8214 14.7462 26.8214 15.0045Z" fill="#CE7430"/>
<path d="M10.0507 20.2087L12.4382 19.3303C13.144 20.967 14.2852 21.7854 15.8618 21.7854C16.7177 21.7854 17.4385 21.5226 18.0241 20.997C18.6097 20.4565 18.9026 19.6982 18.9026 18.7221C18.9026 17.8362 18.5797 17.1154 17.934 16.5598C17.2883 16.0043 16.47 15.7265 15.4789 15.7265C14.9384 15.7265 14.3978 15.7565 13.8572 15.8166V13.384C14.2476 13.414 14.7582 13.429 15.3888 13.429C16.1847 13.429 16.8604 13.1813 17.416 12.6858C17.9866 12.1902 18.2719 11.507 18.2719 10.6361C18.2719 9.87029 18.0316 9.24713 17.5511 8.76663C17.0706 8.2711 16.4625 8.02334 15.7267 8.02334C14.4353 8.02334 13.4893 8.87924 12.8887 10.5911L10.4561 9.82524C10.7715 8.57893 11.4021 7.56536 12.3481 6.78453C13.3092 5.98869 14.4954 5.59077 15.9069 5.59077C17.5586 5.59077 18.8725 6.04125 19.8486 6.9422C20.8246 7.82814 21.3126 8.96183 21.3126 10.3433C21.3126 11.2593 21.0723 12.0776 20.5918 12.7984C20.1263 13.5191 19.5482 14.0597 18.8575 14.4201C19.6834 14.7054 20.4041 15.2159 21.0198 15.9517C21.6505 16.6725 21.9658 17.5959 21.9658 18.7221C21.9658 20.449 21.4102 21.8004 20.299 22.7764C19.2029 23.7374 17.7313 24.2179 15.8844 24.2179C14.3978 24.2179 13.1365 23.8275 12.1004 23.0467C11.0793 22.2659 10.3961 21.3199 10.0507 20.2087Z" fill="#FFAD61"/>
<path d="M15.0041 25.3024C8.73287 25.3024 3.5997 20.4114 3.21229 14.2451C3.19615 14.4953 3.18808 14.7455 3.18808 15.0038C3.18808 21.5333 8.48267 26.8198 15.0041 26.8198C21.5254 26.8198 26.82 21.5252 26.82 15.0038C26.82 14.7536 26.812 14.4953 26.7958 14.2451C26.4003 20.4195 21.2752 25.3024 15.0041 25.3024Z" fill="#BC672E"/>
</g>
<defs>
<clipPath id="clip0">
<rect width="30" height="30" fill="white"/>
</clipPath>
</defs>
</svg>
