<svg width="30" height="30" viewBox="0 0 30 30" fill="none" xmlns="http://www.w3.org/2000/svg">
<g clip-path="url(#clip0)">
<path d="M15.005 28.7409C0.0171344 28.7409 0.00906359 14.4956 0.0171346 14.2454C0.412615 6.31154 6.96629 0 15.005 0C23.0438 0 29.5894 6.31154 29.9849 14.2454C29.9929 14.4956 29.9849 28.7409 15.005 28.7409Z" fill="#FF9838"/>
<path d="M15.004 28.4905C6.96523 28.4905 0.411561 22.1789 0.016081 14.2451C-6.10352e-05 14.4953 -6.10352e-05 14.7455 -6.10352e-05 15.0038C-6.10352e-05 23.2847 6.71503 30.0078 15.004 30.0078C23.2929 30.0078 30.008 23.2927 30.008 15.0038C30.008 14.7536 29.9999 14.4953 29.9919 14.2451C29.5883 22.1789 23.0346 28.4905 15.004 28.4905Z" fill="#FF8709"/>
<path d="M26.8213 15.0045C26.8213 20.065 21.5267 26.094 15.0053 26.094C8.48394 26.094 3.18127 19.726 3.18127 15.0045C3.18127 14.7543 3.18935 14.496 3.20549 14.2458C3.5929 8.07145 8.72607 3.18848 14.9973 3.18848C21.2684 3.18848 26.4016 8.07145 26.7971 14.2458C26.8132 14.496 26.8213 14.7462 26.8213 15.0045Z" fill="#CE7430"/>
<path d="M15.004 25.3024C8.73278 25.3024 3.59961 20.4114 3.2122 14.2451C3.19606 14.4953 3.18799 14.7455 3.18799 15.0038C3.18799 21.5333 8.48258 26.8198 15.004 26.8198C21.5254 26.8198 26.8199 21.5252 26.8199 15.0038C26.8199 14.7536 26.8119 14.4953 26.7957 14.2451C26.4003 20.4195 21.2752 25.3024 15.004 25.3024Z" fill="#BC672E"/>
<path d="M8.93296 17.7086L16.7712 5.83854H19.3164V17.6635H21.5237V20.0961H19.3164V23.9702H16.3883V20.0961H8.93296V17.7086ZM11.7259 17.6635H16.3883V12.6632C16.3883 11.8524 16.4184 11.064 16.4784 10.2982H16.3658C16.0355 10.8688 15.63 11.5521 15.1495 12.3479L11.7259 17.6635Z" fill="#FFAD61"/>
</g>
<defs>
<clipPath id="clip0">
<rect width="30" height="30" fill="white"/>
</clipPath>
</defs>
</svg>
