<svg width="8" height="15" viewBox="0 0 8 15" fill="none" xmlns="http://www.w3.org/2000/svg">
<path d="M7.6452 12.2159L2.93112 7.3548L7.6452 2.49372C7.75769 2.37772 7.84691 2.24002 7.90779 2.08847C7.96867 1.93692 8 1.77449 8 1.61045C8 1.44641 7.96867 1.28398 7.90779 1.13243C7.84691 0.980882 7.75769 0.84318 7.6452 0.727188C7.53272 0.611196 7.39918 0.519186 7.25221 0.456412C7.10524 0.393637 6.94773 0.361328 6.78865 0.361328C6.62957 0.361328 6.47205 0.393637 6.32509 0.456412C6.17812 0.519186 6.04458 0.611196 5.93209 0.727188L0.355379 6.4778C-0.11846 6.96641 -0.11846 7.75571 0.355379 8.24433L5.93209 13.9949C6.0445 14.1111 6.17801 14.2032 6.32499 14.2661C6.47197 14.329 6.62953 14.3613 6.78865 14.3613C6.94777 14.3613 7.10533 14.329 7.25231 14.2661C7.39929 14.2032 7.5328 14.1111 7.6452 13.9949C8.10689 13.5063 8.11904 12.7045 7.6452 12.2159Z" fill="#46CB90"/>
</svg>
