<svg width="6" height="10" viewBox="0 0 10 20" fill="none" xmlns="http://www.w3.org/2000/svg">
<path d="M10.8591 3.59775L4.46437 9.99249L10.8591 16.3872C11.0117 16.5398 11.1327 16.721 11.2153 16.9203C11.2979 17.1197 11.3404 17.3334 11.3404 17.5492C11.3404 17.765 11.2979 17.9786 11.2153 18.178C11.1327 18.3774 11.0117 18.5585 10.8591 18.7111C10.7065 18.8637 10.5254 18.9847 10.326 19.0673C10.1266 19.1499 9.91296 19.1924 9.69717 19.1924C9.48138 19.1924 9.26771 19.1499 9.06834 19.0673C8.86898 18.9847 8.68783 18.8637 8.53524 18.7111L0.970332 11.1462C0.327561 10.5034 0.327561 9.46509 0.970332 8.82232L8.53524 1.25741C8.68772 1.10462 8.86883 0.983408 9.06821 0.900702C9.26759 0.817997 9.48132 0.775425 9.69717 0.775425C9.91303 0.775425 10.1268 0.817997 10.3261 0.900702C10.5255 0.983408 10.7066 1.10462 10.8591 1.25741C11.4854 1.90018 11.5019 2.95498 10.8591 3.59775Z" fill="#44444A"/>
</svg>
