<svg width="15" height="26" viewBox="0 0 15 26" fill="none" xmlns="http://www.w3.org/2000/svg">
<path d="M13.8739 4.50579L5.46724 12.9125L13.8739 21.3191C14.0745 21.5197 14.2336 21.7579 14.3422 22.0199C14.4507 22.282 14.5066 22.5629 14.5066 22.8466C14.5066 23.1303 14.4507 23.4112 14.3422 23.6733C14.2336 23.9354 14.0745 24.1735 13.8739 24.3741C13.6733 24.5747 13.4352 24.7338 13.1731 24.8424C12.911 24.951 12.6301 25.0068 12.3464 25.0068C12.0627 25.0068 11.7818 24.951 11.5197 24.8424C11.2576 24.7338 11.0195 24.5747 10.8189 24.3741L0.873912 14.4291C0.0289116 13.5841 0.0289116 12.2191 0.873912 11.3741L10.8189 1.42913C11.0194 1.22827 11.2574 1.06892 11.5196 0.96019C11.7817 0.851463 12.0626 0.795498 12.3464 0.795498C12.6302 0.795498 12.9112 0.851463 13.1733 0.96019C13.4354 1.06892 13.6735 1.22827 13.8739 1.42913C14.6972 2.27413 14.7189 3.66079 13.8739 4.50579Z" fill="#2A3242"/>
</svg>
